<svg width="32" height="32" viewBox="0 0 32 32" fill="none" xmlns="http://www.w3.org/2000/svg">
  <!-- Background circle -->
  <circle cx="16" cy="16" r="16" fill="#1a2332"/>
  
  <!-- C letter -->
  <path d="M12 10C12 9.44772 12.4477 9 13 9H19C19.5523 9 20 9.44772 20 10V12C20 12.5523 19.5523 13 19 13H13C12.4477 13 12 12.5523 12 12V10Z" fill="#d69e2e"/>
  <path d="M12 15C12 14.4477 12.4477 14 13 14H19C19.5523 14 20 14.4477 20 15V17C20 17.5523 19.5523 18 19 18H13C12.4477 18 12 17.5523 12 17V15Z" fill="#d69e2e"/>
  <path d="M12 19C12 18.4477 12.4477 18 13 18H19C19.5523 18 20 18.4477 20 19V21C20 21.5523 19.5523 22 19 22H13C12.4477 22 12 21.5523 12 21V19Z" fill="#d69e2e"/>
  
  <!-- M letter -->
  <path d="M22 10C22 9.44772 21.5523 9 21 9H19C18.4477 9 18 9.44772 18 10V22C18 22.5523 18.4477 23 19 23H21C21.5523 23 22 22.5523 22 22V10Z" fill="#d69e2e"/>
  <path d="M18 10C18 9.44772 17.5523 9 17 9H15C14.4477 9 14 9.44772 14 10V22C14 22.5523 14.4477 23 15 23H17C17.5523 23 18 22.5523 18 22V10Z" fill="#d69e2e"/>
</svg>
